<?xml version="1.0" standalone="no"?>
<!DOCTYPE svg PUBLIC "-//W3C//DTD SVG 20010904//EN"
 "http://www.w3.org/TR/2001/REC-SVG-20010904/DTD/svg10.dtd">
<svg version="1.0" xmlns="http://www.w3.org/2000/svg"
 width="500.000000pt" height="500.000000pt" viewBox="0 0 500.000000 500.000000"
 preserveAspectRatio="xMidYMid meet">

<g transform="translate(0.000000,500.000000) scale(0.100000,-0.100000)"
fill="white" stroke="none">
<path d="M2200 4494 c-868 -131 -1568 -835 -1695 -1705 -20 -142 -20 -437 1
-578 138 -939 915 -1661 1853 -1721 390 -25 745 49 1079 225 548 290 929 807
1047 1420 38 197 38 534 0 730 -48 248 -136 476 -270 696 l-53 86 -3 139 c-5
164 -17 195 -89 232 -38 19 -60 22 -153 22 l-110 0 -86 64 c-291 216 -588 340
-932 390 -135 20 -456 20 -589 0z m446 -104 c317 -26 632 -132 887 -300 l68
-45 -403 -5 c-460 -6 -452 -4 -496 -90 l-23 -45 3 -450 3 -450 23 -38 c38 -60
69 -71 215 -75 l127 -4 0 -102 c0 -76 4 -107 16 -124 30 -44 55 -30 179 102
l117 125 342 3 c320 3 343 4 374 23 18 11 43 36 55 55 20 32 22 52 27 240 l5
204 52 -109 c243 -513 241 -1115 -5 -1626 -395 -822 -1310 -1244 -2195 -1014
-226 58 -472 177 -656 317 -326 246 -576 609 -685 995 -231 816 106 1688 826
2135 247 153 548 254 830 277 149 12 172 12 314 1z m1200 -645 c21 -33 11 -73
-22 -85 -15 -6 -186 -10 -407 -10 -330 0 -386 2 -405 16 -26 18 -29 60 -5 86
15 17 41 18 419 18 l404 0 16 -25z m-6 -225 c24 -24 25 -48 4 -78 l-15 -22
-401 0 c-442 0 -438 -1 -438 61 0 58 5 59 437 59 380 0 394 -1 413 -20z m-374
-244 c19 -26 18 -55 -3 -78 -15 -16 -35 -18 -226 -18 -182 0 -213 2 -229 17
-24 21 -23 58 3 84 19 19 29 20 230 17 195 -3 212 -4 225 -22z"/>
<path d="M1256 3506 c-47 -18 -104 -70 -122 -113 -8 -18 -14 -57 -14 -88 0
-86 40 -150 118 -189 l32 -17 0 -437 c0 -418 1 -438 20 -470 33 -54 74 -72
161 -72 l77 0 4 -97 c3 -74 9 -108 25 -138 42 -79 105 -116 211 -123 40 -3 71
-8 70 -12 -2 -4 -27 -27 -57 -51 -118 -95 -209 -253 -237 -409 -19 -109 -19
-294 2 -314 14 -14 111 -16 924 -16 813 0 910 2 924 16 13 12 16 39 16 127 0
265 -64 425 -231 580 l-79 74 72 5 c106 7 169 44 211 123 16 30 22 64 25 138
l4 97 77 0 c87 0 128 18 161 72 18 30 20 51 20 229 0 187 -1 198 -22 229 -45
65 -67 75 -193 78 -169 6 -155 44 -155 -412 0 -368 0 -374 -22 -401 -44 -56
-26 -55 -808 -55 -783 0 -764 -1 -809 55 l-22 28 3 516 3 516 27 57 c37 79 98
142 177 181 l65 32 305 5 305 5 13 25 c10 20 10 29 -1 45 -13 19 -24 20 -327
20 -306 0 -316 -1 -372 -24 -126 -50 -240 -168 -281 -291 -12 -36 -20 -98 -23
-177 l-6 -123 -56 0 c-31 0 -66 -3 -78 -6 l-23 -6 0 191 0 190 33 17 c78 40
117 103 117 192 0 42 -7 71 -23 103 -44 82 -156 126 -241 95z m99 -100 c103
-43 74 -205 -36 -206 -30 0 -43 7 -68 35 -50 57 -34 141 32 170 40 18 32 17
72 1z m175 -981 l0 -205 -64 0 c-96 0 -96 -1 -96 199 0 206 1 209 108 210 l52
1 0 -205z m2026 180 c17 -23 20 -335 4 -366 -9 -16 -22 -19 -80 -19 l-70 0 0
206 0 206 66 -4 c50 -3 70 -9 80 -23z m-716 -856 c27 -6 50 -15 50 -20 0 -6
-37 -55 -82 -110 l-81 -99 -281 2 -281 3 -71 95 c-40 52 -68 99 -64 104 5 5
32 14 62 21 68 17 673 20 748 4z m327 -198 c52 -64 107 -176 122 -249 6 -29
11 -96 11 -147 l0 -95 -830 0 -830 0 0 96 c0 180 54 311 181 437 43 42 85 77
93 77 8 0 49 -48 91 -106 43 -58 92 -114 109 -125 29 -17 54 -19 331 -19 278
0 302 1 331 19 18 11 76 72 129 135 l97 116 60 -43 c34 -23 81 -66 105 -96z"/>
<path d="M1867 1262 c-20 -22 -22 -53 -5 -70 17 -17 279 -17 296 0 19 19 14
55 -10 72 -17 12 -50 16 -144 16 -104 0 -123 -2 -137 -18z"/>
<path d="M2307 1262 c-35 -38 -8 -92 46 -92 27 0 57 32 57 61 0 43 -73 65
-103 31z"/>
<path d="M2503 1254 c-15 -24 -15 -29 -2 -53 28 -50 109 -32 109 25 0 55 -76
75 -107 28z"/>
<path d="M2762 1264 c-24 -17 -29 -53 -10 -72 17 -17 279 -17 296 0 19 19 14
55 -10 72 -17 12 -50 16 -138 16 -88 0 -121 -4 -138 -16z"/>
<path d="M2084 2970 c-110 -16 -220 -95 -272 -195 -26 -49 -27 -55 -27 -230 0
-178 0 -181 28 -233 35 -67 92 -124 159 -159 l53 -28 445 0 445 0 53 28 c109
57 181 161 190 274 5 70 -6 93 -44 93 -34 0 -50 -23 -57 -79 -11 -89 -62 -160
-142 -197 -50 -24 -52 -24 -446 -24 l-395 0 -52 26 c-106 53 -142 128 -142
300 0 163 31 234 128 291 l47 28 243 5 c226 5 245 6 258 24 18 25 18 37 0 62
-13 18 -29 19 -218 21 -112 0 -226 -2 -254 -7z"/>
<path d="M2142 2703 c-12 -2 -37 -19 -56 -36 -101 -95 -42 -257 94 -257 114 0
181 109 131 214 -32 64 -94 93 -169 79z m81 -132 c6 -25 -18 -61 -42 -61 -42
0 -56 58 -19 84 25 18 53 7 61 -23z"/>
<path d="M2655 2703 c-32 -8 -74 -42 -90 -73 -21 -41 -19 -118 5 -157 54 -88
194 -83 250 9 66 108 -41 252 -165 221z m77 -131 c8 -31 -9 -62 -35 -62 -48 0
-65 56 -25 84 24 17 53 7 60 -22z"/>
</g>
</svg>
